#!OML:ASF H:\Terrain\Patient Classification 1\Terrain2\Thursday\justin.ASF
:FULLY-SPECIFIED
:DEGREES
1797
root -2.78774 22.6385 2.27376 353.496 -3.79024 -6.83521
lowerback 4.61568 1.50045 7.26002
upperback 3.26848 2.23803 3.85475
thorax 0.919995 1.19706 -0.164704
lowerneck -12.4796 0.584209 -6.89564
upperneck 40.4831 3.21129 -0.085555
head 16.643 0.286157 1.7591
rclavicle -1.76049e-014 -5.00937e-014
rhumerus -30.8327 -3.37603 -82.7437
rradius 28.9369
rwrist -10.8479
rhand -19.4241 11.8628
rfingers 7.12502
rthumb 6.89578 -18.0049
lclavicle -1.76049e-014 -5.00937e-014
lhumerus -38.0848 11.2979 81.8779
lradius 28.3653
lwrist -0.0149217
lhand -16.0162 20.6575
lfingers 7.12502
lthumb 10.1845 50.3909
rfemur 11.0067 -2.47464 30.7063
rtibia 35.6274
rfoot -31.1018 -0.814249
rtoes -1.98744
lfemur -24.2488 2.3654 -9.62364
ltibia 21.4141
lfoot 21.77 1.18947
ltoes 0.0641233
1798
root -2.77402 22.5818 2.38477 353.382 -3.96787 -7.00857
lowerback 4.61506 1.49072 7.37128
upperback 3.19961 2.23382 3.84468
thorax 0.853931 1.19369 -0.237869
lowerneck -12.5635 0.598234 -7.0112
upperneck 40.9423 3.18417 0.197497
head 16.906 0.275676 1.91087
rclavicle 1.46852e-014 9.54166e-015
rhumerus -31.2734 -3.1066 -82.9119
rradius 29.2005
rwrist -11.3794
rhand -19.5375 12.0052
rfingers 7.12502
rthumb 6.78634 -17.866
lclavicle 1.46852e-014 9.54166e-015
lhumerus -38.202 11.358 81.69
lradius 28.4646
lwrist -0.0400582
lhand -15.9004 20.1011
lfingers 7.12502
lthumb 10.2963 49.8291
rfemur 11.0248 -2.4828 30.7544
rtibia 36.7271
rfoot -31.7434 -0.457217
rtoes -1.64271
lfemur -23.7502 2.17938 -9.36012
ltibia 21.3546
lfoot 22.4825 1.47743
ltoes 0.252427
1799
root -2.76002 22.5148 2.49641 353.297 -3.98224 -7.48788
lowerback 4.52647 1.38417 7.70278
upperback 3.17956 2.0949 3.9758
thorax 0.883877 1.12843 -0.278279
lowerneck -12.5288 0.678649 -6.93104
upperneck 41.0584 3.30145 0.152616
head 16.9584 0.324407 1.8975
rclavicle 3.34579e-014 6.91771e-014
rhumerus -31.5932 -3.10167 -82.8916
rradius 29.3815
rwrist -11.4546
rhand -19.3885 11.9228
rfingers 7.12502
rthumb 6.93009 -17.9437
lclavicle 3.34579e-014 6.91771e-014
lhumerus -38.2487 11.5507 81.5983
lradius 28.5659
lwrist 0.441299
lhand -15.7442 20.1308
lfingers 7.12502
lthumb 10.4469 49.8512
rfemur 11.0265 -2.87621 31.0889
rtibia 37.8004
rfoot -32.0087 -0.53556
rtoes -2.52602
lfemur -23.2299 2.0634 -8.85604
ltibia 21.1418
lfoot 23.4348 1.56415
ltoes -1.26906
1800
root -2.74539 22.4434 2.61868 353.19 -4.06598 -7.42435
lowerback 4.28644 1.4107 7.53857
upperback 3.23064 2.09471 3.96034
thorax 1.06479 1.13198 -0.195254
lowerneck -12.6925 0.670951 -7.25293
upperneck 41.2447 3.31186 0.412779
head 17.091 0.304471 2.08058
rclavicle 5.82688e-015 4.41302e-014
rhumerus -31.7184 -3.52855 -82.7025
rradius 29.2078
rwrist -11.1631
rhand -19.0358 11.4775
rfingers 7.12502
rthumb 7.27059 -18.3776
lclavicle 5.82688e-015 4.41302e-014
lhumerus -38.2728 11.4558 81.6976
lradius 28.8269
lwrist 1.01154
lhand -15.809 20.3219
lfingers 7.12502
lthumb 10.3844 50.0455
rfemur 11.2365 -3.06182 30.7967
rtibia 38.8405
rfoot -32.3583 -0.375422
rtoes -3.00894
lfemur -22.585 1.98079 -8.94408
ltibia 20.9126
lfoot 24.1379 1.9457
ltoes -1.37968
1801
root -2.73079 22.3818 2.74564 353.113 -4.20386 -7.18078
lowerback 4.08007 1.51527 7.22127
upperback 3.20211 2.20526 3.86508
thorax 1.14658 1.18476 -0.115826
lowerneck -12.9392 0.638563 -7.47846
upperneck 41.6275 3.27855 0.669038
head 17.3624 0.271797 2.24533
rclavicle 3.23771e-014 -1.59028e-015
rhumerus -31.88 -4.02899 -82.4945
rradius 28.8305
rwrist -10.7339
rhand -19.0308 10.876
rfingers 7.12502
rthumb 7.2754 -18.9789
lclavicle 3.23771e-014 -1.59028e-015
lhumerus -38.3535 11.232 81.7486
lradius 28.9537
lwrist 0.874515
lhand -15.6987 20.9122
lfingers 7.12502
lthumb 10.4908 50.6304
rfemur 11.3671 -2.84935 30.3059
rtibia 39.9308
rfoot -32.9255 0.792261
rtoes -0.664777
lfemur -21.8876 1.99651 -9.22548
ltibia 20.6404
lfoot 24.4856 2.52935
ltoes -0.0424435
1802
root -2.71536 22.3224 2.8708 353.106 -4.242 -7.27951
lowerback 3.84602 1.47924 7.17916
upperback 3.14565 2.13584 3.8862
thorax 1.21246 1.14992 -0.0631282
lowerneck -12.7712 0.752236 -7.23228
upperneck 41.6613 3.43437 0.488674
head 17.3387 0.349126 2.14328
rclavicle 4.28629e-015 -1.47101e-014
rhumerus -32.0698 -4.11268 -82.3731
rradius 28.6577
rwrist -10.5046
rhand -19.221 10.3181
rfingers 7.12502
rthumb 7.09179 -19.5431
lclavicle 4.28629e-015 -1.47101e-014
lhumerus -38.4932 11.3206 81.6982
lradius 28.9587
lwrist 0.826011
lhand -15.7931 21.5896
lfingers 7.12502
lthumb 10.3997 51.3124
rfemur 11.2865 -3.02526 30.15
rtibia 41.0981
rfoot -33.3309 0.853909
rtoes -2.66422
lfemur -21.1919 2.07175 -9.18366
ltibia 20.1711
lfoot 24.9296 2.66375
ltoes -0.586917
1803
root -2.70289 22.2661 2.99785 353.109 -4.29256 -7.33647
lowerback 3.55384 1.44377 7.09712
upperback 3.12612 2.05779 3.87991
thorax 1.3484 1.11277 -0.0141743
lowerneck -12.4436 0.928147 -6.91447
upperneck 41.4435 3.65356 0.2615
head 17.1301 0.470278 2.00928
rclavicle -3.40419e-014 -2.66371e-014
rhumerus -32.2214 -4.30384 -82.2436
rradius 28.6124
rwrist -10.3579
rhand -19.15 10.5256
rfingers 7.12502
rthumb 7.16031 -19.3333
lclavicle -3.40419e-014 -2.66371e-014
lhumerus -38.56 11.4113 81.6138
lradius 28.9902
lwrist 1.01886
lhand -15.6668 22.1682
lfingers 7.12502
lthumb 10.5216 51.8849
rfemur 11.2525 -3.16064 29.9987
rtibia 42.2501
rfoot -33.4323 1.40563
rtoes -1.92295
lfemur -20.5238 2.27531 -9.21102
ltibia 19.7761
lfoot 25.3749 2.40973
ltoes -2.26787
1804
root -2.69153 22.2037 3.12525 353.065 -4.39311 -7.25132
lowerback 3.33659 1.50654 6.93797
upperback 3.0976 2.11867 3.78399
thorax 1.44046 1.14332 -0.0201419
lowerneck -12.2903 0.997608 -6.68893
upperneck 41.3519 3.71235 0.164489
head 17.0421 0.522126 1.93027
rclavicle -1.86733e-014 -4.77083e-015
rhumerus -32.452 -4.9361 -82.0557
rradius 28.471
rwrist -10.1453
rhand -19.0506 11.9158
rfingers 7.12502
rthumb 7.25631 -17.9398
lclavicle -1.86733e-014 -4.77083e-015
lhumerus -38.6591 11.173 81.5219
lradius 29.1226
lwrist 0.901645
lhand -15.1065 22.1745
lfingers 7.12502
lthumb 11.062 51.863
rfemur 11.3167 -2.9967 29.7403
rtibia 43.3322
rfoot -33.4056 2.97101
rtoes 2.57583
lfemur -19.9212 2.5007 -9.3636
ltibia 19.6621
lfoot 25.5541 2.51016
ltoes -1.1055
1805
root -2.67519 22.1188 3.25275 352.966 -4.45741 -7.31524
lowerback 3.23033 1.53464 6.90321
upperback 3.08474 2.14596 3.75404
thorax 1.4877 1.15765 -0.0290746
lowerneck -12.2519 1.00238 -6.55151
upperneck 41.3829 3.70213 0.10089
head 17.0546 0.529313 1.87513
rclavicle 1.45136e-014 3.49861e-014
rhumerus -32.645 -5.35752 -81.9273
rradius 28.2122
rwrist -10.0204
rhand -18.9516 12.3261
rfingers 7.12502
rthumb 7.3519 -17.5262
lclavicle 1.45136e-014 3.49861e-014
lhumerus -38.8467 10.7164 81.6299
lradius 29.367
lwrist 1.36839
lhand -15.5647 21.2585
lfingers 7.12502
lthumb 10.6201 50.9702
rfemur 11.49 -3.31246 29.5424
rtibia 44.353
rfoot -33.6978 2.3562
rtoes -1.5939
lfemur -19.313 2.50301 -9.34313
ltibia 19.6372
lfoot 25.606 2.62538
ltoes 0.0367134
1806
root -2.65738 22.0306 3.38232 352.953 -4.49763 -7.52206
lowerback 3.1073 1.46712 6.87868
upperback 3.0116 2.04769 3.84322
thorax 1.47147 1.10555 0.0796693
lowerneck -12.2644 1.06628 -6.47739
upperneck 41.5041 3.84631 -0.0473951
head 17.1283 0.57285 1.82149
rclavicle 3.74934e-014 5.20816e-014
rhumerus -32.8325 -5.32317 -81.8423
rradius 28.0001
rwrist -9.99429
rhand -18.9219 11.3573
rfingers 7.12502
rthumb 7.38053 -18.4939
lclavicle 3.74934e-014 5.20816e-014
lhumerus -39.0676 10.625 81.7369
lradius 29.4175
lwrist 2.09503
lhand -16.4271 20.1222
lfingers 7.12502
lthumb 9.78813 49.8747
rfemur 11.6622 -3.83378 29.47
rtibia 45.3273
rfoot -34.2272 0.688939
rtoes -8.92762
lfemur -18.7899 2.43904 -9.17832
ltibia 19.6633
lfoot 25.7336 2.44167
ltoes -1.2803
1807
root -2.64042 21.9568 3.51502 353.073 -4.60992 -7.72508
lowerback 2.8453 1.39744 6.79764
upperback 2.85377 1.93724 3.98173
thorax 1.4413 1.04422 0.272562
lowerneck -12.2238 1.1324 -6.56655
upperneck 41.6475 4.0149 -0.135965
head 17.1961 0.608141 1.82711
rclavicle 8.11601e-015 -3.57812e-015
rhumerus -33.3007 -5.23438 -81.668
rradius 28.0696
rwrist -10.0311
rhand -19.0693 11.6588
rfingers 7.12502
rthumb 7.23829 -18.1974
lclavicle 8.11601e-015 -3.57812e-015
lhumerus -39.4253 10.9431 81.6606
lradius 29.4372
lwrist 2.16483
lhand -16.5451 19.8358
lfingers 7.12502
lthumb 9.67424 49.5937
rfemur 11.6319 -3.97095 29.4567
rtibia 46.2546
rfoot -34.5489 0.598446
rtoes -10.93
lfemur -18.3886 2.24952 -8.96124
ltibia 19.809
lfoot 25.7559 2.52246
ltoes -2.464
1808
root -2.62003 21.8874 3.65287 353.079 -4.75323 -7.74614
lowerback 2.59978 1.40518 6.66558
upperback 2.77908 1.92606 4.02068
thorax 1.49468 1.03608 0.391233
lowerneck -12.1405 1.17093 -6.69087
upperneck 41.6986 4.07062 -0.0496262
head 17.195 0.621473 1.89679
rclavicle 2.26304e-014 2.46493e-014
rhumerus -33.8552 -5.52087 -81.3945
rradius 28.2767
rwrist -9.92261
rhand -18.825 11.9588
rfingers 7.12502
rthumb 7.47407 -17.8892
lclavicle 2.26304e-014 2.46493e-014
lhumerus -39.5961 11.1127 81.5841
lradius 29.4251
lwrist 1.88829
lhand -16.4341 20.908
lfingers 7.12502
lthumb 9.78135 50.6609
rfemur 11.6892 -3.97379 29.2282
rtibia 47.1676
rfoot -34.6319 0.842057
rtoes -12.293
lfemur -17.7852 1.87303 -8.92034
ltibia 19.9595
lfoot 25.5047 2.58457
ltoes -4.12441
1809
root -2.5987 21.813 3.79464 352.998 -4.82907 -7.86143
lowerback 2.42758 1.40568 6.67418
upperback 2.784 1.90896 4.05327
thorax 1.59501 1.02967 0.425505
lowerneck -12.1618 1.24716 -6.54683
upperneck 41.7189 4.19336 -0.155857
head 17.2139 0.678402 1.84459
rclavicle -3.23522e-014 -4.33351e-014
rhumerus -34.1244 -5.89707 -81.1197
rradius 28.2008
rwrist -9.70123
rhand -18.3355 11.0777
rfingers 7.12502
rthumb 7.94654 -18.7529
lclavicle -3.23522e-014 -4.33351e-014
lhumerus -39.5275 11.3203 81.4731
lradius 29.2113
lwrist 1.36568
lhand -16.2598 21.6837
lfingers 7.12502
lthumb 9.94955 51.4286
rfemur 11.9251 -4.00219 29.1215
rtibia 48.101
rfoot -34.7245 0.90509
rtoes -13.5397
lfemur -17.0338 1.83749 -8.84402
ltibia 20.0474
lfoot 25.4188 1.93388
ltoes -6.19087
1810
root -2.57786 21.7355 3.9347 353.134 -4.93556 -8.3854
lowerback 2.27185 1.3529 7.02429
upperback 2.64253 1.83492 4.22698
thorax 1.54015 0.993185 0.41339
lowerneck -12.3617 1.34438 -6.4432
upperneck 41.8852 4.37377 -0.230654
head 17.3592 0.747038 1.83015
rclavicle 1.58903e-014 3.85642e-014
rhumerus -34.381 -6.05808 -80.8619
rradius 27.9562
rwrist -9.62402
rhand -17.9943 10.5933
rfingers 7.12502
rthumb 8.27588 -19.2246
lclavicle 1.58903e-014 3.85642e-014
lhumerus -39.8156 11.6578 81.3065
lradius 29.2047
lwrist 1.13719
lhand -15.8141 21.1018
lfingers 7.12502
lthumb 10.3795 50.8256
rfemur 11.9767 -4.05205 29.4814
rtibia 49.0737
rfoot -34.7079 0.939951
rtoes -14.2014
lfemur -16.4776 2.20728 -8.34434
ltibia 20.0954
lfoot 25.6812 0.77484
ltoes -7.26731
1811
root -2.55296 21.6551 4.07512 353.415 -4.9637 -8.6835
lowerback 2.02543 1.31744 7.19501
upperback 2.40038 1.78091 4.3056
thorax 1.42863 0.961477 0.40219
lowerneck -12.5942 1.37178 -6.53861
upperneck 42.088 4.42013 -0.0828158
head 17.5259 0.757695 1.93164
rclavicle -1.26725e-015 -3.22031e-014
rhumerus -34.8837 -6.21315 -80.6428
rradius 27.9699
rwrist -9.8384
rhand -17.6751 10.5469
rfingers 7.12502
rthumb 8.58384 -19.2586
lclavicle -1.26725e-015 -3.22031e-014
lhumerus -40.274 11.7686 81.1638
lradius 29.2743
lwrist 1.23093
lhand -15.293 20.5196
lfingers 7.12502
lthumb 10.8822 50.2176
rfemur 11.8309 -4.27987 29.4445
rtibia 50.1291
rfoot -34.5991 1.06417
rtoes -15.2562
lfemur -16.0754 2.48529 -8.14026
ltibia 20.1716
lfoot 25.767 -0.345534
ltoes -6.71816
